<?xml version="1.0" encoding="UTF-8" standalone="no"?>
<!-- Generator: Adobe Illustrator 22.1.0, SVG Export Plug-In . SVG Version: 6.00 Build 0)  -->

<svg
   xmlns:dc="http://purl.org/dc/elements/1.1/"
   xmlns:cc="http://creativecommons.org/ns#"
   xmlns:rdf="http://www.w3.org/1999/02/22-rdf-syntax-ns#"
   xmlns:svg="http://www.w3.org/2000/svg"
   xmlns="http://www.w3.org/2000/svg"
   xmlns:sodipodi="http://sodipodi.sourceforge.net/DTD/sodipodi-0.dtd"
   xmlns:inkscape="http://www.inkscape.org/namespaces/inkscape"
   version="1.1"
   id="Capa_1"
   x="0px"
   y="0px"
   viewBox="0 0 512 512"
   style="enable-background:new 0 0 512 512;"
   xml:space="preserve"
   sodipodi:docname="cart.svg"
   inkscape:version="0.92.4 5da689c313, 2019-01-14"><metadata
   id="metadata921"><rdf:RDF><cc:Work
       rdf:about=""><dc:format>image/svg+xml</dc:format><dc:type
         rdf:resource="http://purl.org/dc/dcmitype/StillImage" /></cc:Work></rdf:RDF></metadata><defs
   id="defs919" /><sodipodi:namedview
   pagecolor="#ffffff"
   bordercolor="#666666"
   borderopacity="1"
   objecttolerance="10"
   gridtolerance="10"
   guidetolerance="10"
   inkscape:pageopacity="0"
   inkscape:pageshadow="2"
   inkscape:window-width="1920"
   inkscape:window-height="1075"
   id="namedview917"
   showgrid="false"
   inkscape:zoom="1.65625"
   inkscape:cx="256"
   inkscape:cy="256"
   inkscape:window-x="1920"
   inkscape:window-y="4"
   inkscape:window-maximized="0"
   inkscape:current-layer="Capa_1" />
<style
   type="text/css"
   id="style888">
	.st0{fill:#FC002A;}
	.st1{font-family:'Almaq-Refined';}
	.st2{font-size:200px;}
</style>
<g
   id="g894">
	<g
   id="g892">
		<path
   d="M471.5,234.7c-6.4-2.1-10.7,2.1-12.8,8.5l-8.5,36.3L138.7,320l-38.4-192h145.1c6.4,0,10.7-4.3,10.7-10.7    s-4.3-10.7-10.7-10.7H96L85.3,51.2c0-4.3-6.4-8.5-10.7-8.5h-64C4.3,42.7,0,46.9,0,53.3C0,59.7,4.3,64,10.7,64h55.5l51.2,260.3    c6.4,34.1,38.4,59.7,72.5,59.7h245.3c6.4,0,10.7-4.3,10.7-10.7s-4.3-10.7-10.7-10.7H192c-17.1,0-34.1-8.5-42.7-23.5l311.5-42.7    c4.3,0,8.5-4.3,8.5-8.5l10.7-42.7C482.1,243.2,477.9,236.8,471.5,234.7z"
   id="path890" />
	</g>
</g>
<g
   id="g900">
	<g
   id="g898">
		<path
   d="M181.3,405.3c-29.9,0-53.3,23.5-53.3,53.3s23.5,53.3,53.3,53.3c29.9,0,53.3-23.5,53.3-53.3S211.2,405.3,181.3,405.3z     M181.3,490.7c-17.1,0-32-14.9-32-32s14.9-32,32-32s32,14.9,32,32S198.4,490.7,181.3,490.7z"
   id="path896" />
	</g>
</g>
<g
   id="g906">
	<g
   id="g904">
		<path
   d="M394.7,405.3c-29.9,0-53.3,23.5-53.3,53.3s23.5,53.3,53.3,53.3c29.9,0,53.3-23.5,53.3-53.3S424.5,405.3,394.7,405.3z     M394.7,490.7c-17.1,0-32-14.9-32-32s14.9-32,32-32s32,14.9,32,32S411.7,490.7,394.7,490.7z"
   id="path902" />
	</g>
</g>


</svg>